<?xml version="1.0" standalone="no"?>
<!DOCTYPE svg PUBLIC "-//W3C//DTD SVG 20010904//EN"
 "http://www.w3.org/TR/2001/REC-SVG-20010904/DTD/svg10.dtd">
<svg version="1.0" xmlns="http://www.w3.org/2000/svg"
 width="242.000000pt" height="208.000000pt" viewBox="0 0 242.000000 208.000000"
 preserveAspectRatio="xMidYMid meet">

<g transform="translate(0.000000,208.000000) scale(0.100000,-0.100000)"
fill="#000000" stroke="none">
<path d="M1565 1945 c-5 -2 -54 -7 -107 -10 -54 -4 -98 -11 -98 -15 0 -5 11
-22 25 -38 l25 -30 -81 -76 c-211 -198 -518 -335 -812 -362 -150 -14 -99 -32
90 -33 314 -2 627 95 929 289 20 12 24 10 52 -21 17 -19 34 -31 38 -27 8 9 73
282 74 311 0 14 -9 17 -62 16 -35 0 -67 -2 -73 -4z"/>
<path d="M1817 1623 c-4 -3 -7 -235 -7 -515 l0 -508 160 0 160 0 0 515 0 515
-153 0 c-85 0 -157 -3 -160 -7z"/>
<path d="M1430 1080 l0 -480 160 0 160 0 0 480 0 480 -160 0 -160 0 0 -480z"/>
<path d="M1040 955 l0 -355 165 0 165 0 0 355 0 355 -165 0 -165 0 0 -355z"/>
<path d="M660 920 l0 -320 165 0 165 0 0 320 0 320 -165 0 -165 0 0 -320z"/>
<path d="M287 1143 c-4 -3 -7 -127 -7 -275 l0 -268 160 0 160 0 0 275 0 275
-153 0 c-85 0 -157 -3 -160 -7z"/>
<path d="M461 363 c-131 -66 -65 -260 82 -240 50 7 62 19 48 46 -9 16 -16 18
-34 12 -27 -10 -78 3 -94 26 -19 25 -16 67 8 92 17 18 30 22 66 20 35 -3 47 1
55 15 14 25 -1 37 -54 42 -28 3 -55 -1 -77 -13z"/>
<path d="M694 370 c-11 -4 -33 -22 -47 -40 -50 -59 -30 -162 39 -195 72 -34
148 -2 174 73 13 37 13 47 0 84 -25 70 -100 105 -166 78z m91 -65 c16 -15 25
-36 25 -55 0 -33 -37 -80 -63 -80 -8 0 -26 9 -41 21 -20 16 -26 29 -26 59 0
30 6 43 26 59 34 27 50 26 79 -4z"/>
<path d="M1214 370 c-11 -4 -33 -22 -47 -40 -48 -57 -31 -162 33 -195 93 -48
201 30 184 134 -14 85 -93 132 -170 101z m96 -66 c20 -20 19 -89 -2 -111 -23
-22 -77 -21 -94 2 -15 20 -19 83 -6 101 23 34 71 37 102 8z"/>
<path d="M1618 372 c-23 -3 -30 -12 -50 -68 -12 -35 -26 -64 -29 -64 -4 0 -17
29 -30 65 -21 61 -24 65 -54 65 l-32 0 -11 -117 c-6 -65 -7 -122 -2 -126 4 -5
16 -7 26 -5 15 3 20 15 24 65 3 34 7 64 10 67 3 3 16 -24 29 -60 32 -90 52
-88 83 8 l23 72 10 -75 c9 -70 11 -74 35 -74 14 0 25 5 25 10 -3 77 -19 236
-24 238 -3 1 -18 1 -33 -1z"/>
<path d="M1861 363 c-49 -25 -74 -64 -74 -112 0 -79 64 -135 146 -128 58 5 73
17 57 43 -9 15 -21 18 -59 16 -55 -4 -84 20 -84 68 0 49 29 72 86 69 38 -2 51
1 59 15 14 25 -1 37 -54 43 -29 3 -54 -2 -77 -14z"/>
<path d="M2068 360 c-20 -16 -28 -30 -28 -54 0 -35 15 -54 68 -80 17 -9 32
-23 32 -31 0 -23 -46 -30 -74 -11 -23 14 -25 14 -41 -10 -16 -24 -15 -25 22
-40 48 -21 112 -13 135 16 36 45 16 94 -51 125 -42 19 -53 41 -25 52 8 3 26 1
39 -5 21 -10 26 -8 36 9 14 27 2 39 -47 46 -30 4 -45 0 -66 -17z"/>
<path d="M220 251 l0 -119 53 -6 c62 -8 83 -2 90 25 5 17 0 19 -39 19 -42 0
-44 1 -44 30 0 28 2 30 40 30 33 0 40 3 40 20 0 17 -7 20 -40 20 -38 0 -40 2
-40 30 0 29 2 30 44 30 39 0 44 2 39 20 -5 18 -14 20 -74 20 l-69 0 0 -119z"/>
<path d="M900 251 c0 -119 0 -119 25 -123 25 -5 25 -5 25 76 l0 81 49 -76 c27
-42 56 -79 66 -83 43 -16 45 -12 45 119 l0 125 -30 0 -29 0 -3 -72 -3 -71 -45
71 c-38 61 -49 72 -72 72 l-28 0 0 -119z"/>
<path d="M1700 251 c0 -118 0 -119 25 -123 13 -3 27 -3 30 0 3 3 5 59 5 124
l0 118 -30 0 -30 0 0 -119z"/>
</g>
</svg>
